<?xml version="1.0" standalone="no"?><!DOCTYPE svg PUBLIC "-//W3C//DTD SVG 1.1//EN" "http://www.w3.org/Graphics/SVG/1.1/DTD/svg11.dtd"><svg t="1577692060394" class="icon" viewBox="0 0 1365 1024" version="1.1" xmlns="http://www.w3.org/2000/svg" p-id="4144" xmlns:xlink="http://www.w3.org/1999/xlink" width="266.6015625" height="200"><defs><style type="text/css"></style></defs><path d="M682.666667 734.890667c165.461333 0 315.392-62.72 448.512-187.221334a32 32 0 0 0 2.602666-44.032c-113.664-134.698667-202.453333-212.138667-270.933333-233.173333-36.096-11.050667-60.928-4.266667-117.077333 21.248-32.810667 14.933333-47.658667 19.882667-63.104 19.882667-15.445333 0-30.293333-4.992-63.018667-19.882667-56.064-25.6-80.768-32.341333-116.821333-21.333333-68.565333 20.992-157.482667 98.474667-271.274667 233.258666a32 32 0 0 0 2.56 44.032c133.12 124.458667 283.093333 187.221333 448.554667 187.221334z m-161.109334-403.328c15.061333-4.608 30.378667-0.426667 71.552 18.346666 41.130667 18.773333 61.738667 25.685333 89.557334 25.685334 27.776 0 48.384-6.869333 89.6-25.6 41.258667-18.773333 56.661333-22.954667 71.808-18.346667 49.578667 15.232 124.373333 78.677333 220.672 189.738667-115.584 99.968-242.56 149.504-382.08 149.504-139.52 0-266.496-49.493333-382.08-149.504 96.426667-111.146667 171.306667-174.592 220.970666-189.824z" fill="#2c2c2c" p-id="4145"></path><path d="M258.773333 538.325333a3881.173333 3881.173333 0 0 1 805.12 0l5.546667-53.077333a3934.506667 3934.506667 0 0 0-816.213333 0l5.546666 53.077333z" fill="#2c2c2c" p-id="4146"></path></svg>