<?xml version="1.0" standalone="no"?><!DOCTYPE svg PUBLIC "-//W3C//DTD SVG 1.1//EN" "http://www.w3.org/Graphics/SVG/1.1/DTD/svg11.dtd"><svg t="1577691288045" class="icon" viewBox="0 0 1024 1024" version="1.1" xmlns="http://www.w3.org/2000/svg" p-id="2954" xmlns:xlink="http://www.w3.org/1999/xlink" width="200" height="200"><defs><style type="text/css"></style></defs><path d="M400 762.2c-10.6-6.3-14.1-20-7.9-30.6 6.3-10.6 20-14.2 30.6-7.9 6.6 3.9 12.4 7.5 17.8 10.9 23.5 14.6 38.3 23.8 71.4 23.8 33.1 0 47.9-9.2 71.4-23.8 5.4-3.3 11.2-6.9 17.8-10.9 10.6-6.3 24.3-2.8 30.6 7.9 6.3 10.6 2.8 24.3-7.9 30.6-6 3.6-11.7 7.1-16.9 10.3-30.3 18.8-49.3 30.6-95.1 30.6s-64.7-11.8-95.1-30.6c-5-3.2-10.7-6.7-16.7-10.3z" fill="#2c2c2c" p-id="2955"></path><path d="M287.7 817.2c-12.3-0.7-21.8-11.2-21.1-23.5 0.7-12.3 11.2-21.8 23.5-21.1 46.2 2.7 73.6 19.8 102.5 37.8C422.1 828.6 453.1 848 512 848c58.9 0 89.9-19.3 119.3-37.6 28.9-18 56.4-35.1 102.5-37.8 12.4-0.7 22.9 8.8 23.5 21.1 0.7 12.3-8.8 22.9-21.1 23.5-34.6 2-57.4 16.2-81.4 31.1-34.7 21.6-71.4 44.4-142.9 44.4S403.7 869.9 369 848.3c-23.9-14.9-46.7-29.1-81.3-31.1z m309.6-661.9c4.5 57.7 19.1 106.9 33.8 156.5 9.7 32.9 19.6 65.9 26.2 101.1 6.4 34.1 7.7 59.1 8.7 78.7 2.9 56.8 3.9 76.4 80.5 122.5 61.9 37.3 93.4 78.8 102.3 116.5 4.4 18.7 3.2 36.4-2.7 52-5.9 15.6-16.5 29.2-30.8 39.8-27 20-67 29-113.9 19.7-12.1-2.4-23.8 5.5-26.2 17.7-2.4 12.1 5.6 23.9 17.7 26.2 59.9 11.8 112.5-0.7 149.1-27.7 21.2-15.7 37-36.3 46-59.9 9-23.7 11-50.3 4.5-77.9C881 671.9 843.1 620 769.7 575.9c-56.2-33.9-56.9-47.4-59-86.5-1.1-20.9-2.4-47.6-9.4-84.7-7-37.5-17.1-71.6-27.2-105.5-14-47.3-27.9-94.1-32.1-147.2-0.9-12.3-11.6-21.6-24-20.6-12.4 0.8-21.6 11.6-20.7 23.9zM382.1 152C378 205.1 364 252 350 299.2c-10 33.9-20.2 68-27.2 105.5-6.9 37-8.3 63.7-9.4 84.7-2 39.1-2.7 52.6-59 86.5-73.3 44.2-111.3 96.1-122.7 144.6-6.5 27.6-4.5 54.1 4.4 77.9 9 23.7 24.8 44.2 46 59.9 36.6 27.1 89.1 39.6 149.1 27.7 12.1-2.4 20-14.1 17.7-26.2-2.4-12.1-14.1-20-26.2-17.7-46.9 9.3-86.9 0.3-113.9-19.7-14.3-10.6-24.9-24.2-30.8-39.8-5.9-15.5-7.1-33.3-2.7-52 8.9-37.7 40.4-79.2 102.3-116.5 76.5-46.1 77.6-65.7 80.5-122.5 1-19.6 2.3-44.6 8.7-78.7 6.6-35.2 16.4-68.2 26.2-101.1 14.7-49.6 29.3-98.8 33.8-156.5 0.9-12.3-8.3-23.1-20.6-24-12.5-0.9-23.2 8.3-24.1 20.7z" fill="#2c2c2c" p-id="2956"></path></svg>